<mxfile host="app.diagrams.net" agent="Mozilla/5.0 (Windows NT 10.0; Win64; x64) AppleWebKit/537.36 (KHTML, like Gecko) Chrome/131.0.0.0 Safari/537.36" version="26.0.6">
  <diagram name="Page-1" id="utp3yNJimWN3oe4ciISK">
    <mxGraphModel dx="803" dy="434" grid="1" gridSize="10" guides="1" tooltips="1" connect="1" arrows="1" fold="1" page="1" pageScale="1" pageWidth="827" pageHeight="1169" math="0" shadow="0">
      <root>
        <mxCell id="0" />
        <mxCell id="1" parent="0" />
        <mxCell id="p_J60ezasi7IBexBNHl3-1" value="&lt;font face=&quot;Lucida Console&quot;&gt;Find Complement!&lt;/font&gt;" style="rounded=1;whiteSpace=wrap;html=1;glass=0;fillColor=#60a917;fontColor=#ffffff;strokeColor=#2D7600;aspect=fixed;" vertex="1" parent="1">
          <mxGeometry x="240" y="160" width="160" height="60" as="geometry" />
        </mxCell>
      </root>
    </mxGraphModel>
  </diagram>
</mxfile>
